<svg width="139" height="29" viewBox="0 0 139 29" fill="none" xmlns="http://www.w3.org/2000/svg">
<g clip-path="url(#clip0_2362_42)">
<path d="M28.7586 0H0V28.7586H28.7586V0Z" fill="#1B1B1C"/>
<path d="M13.4214 16.2973L8.43652 6.99866H10.7372L13.6131 12.8462C13.6131 12.9421 13.7089 13.038 13.8048 13.1338C13.9007 13.2297 13.9007 13.3256 13.9965 13.5173L14.0924 13.6131V13.709C14.1882 13.9007 14.1882 13.9966 14.2841 14.1883C14.38 14.2842 14.38 14.4759 14.4758 14.5718C14.5717 14.2842 14.7634 14.0925 14.8593 13.709C14.9551 13.4214 15.1469 13.1338 15.3386 12.8462L18.2145 6.99866H20.3234L15.3386 16.3931V22.3366H13.4214V16.2973Z" fill="white"/>
<path d="M41.8917 5.56073C43.3296 5.56073 44.5758 5.94418 45.5345 6.71107L44.5758 7.86142C43.7131 7.28625 42.8503 6.9028 41.7958 6.9028C40.1662 6.9028 38.92 7.76556 38.2489 9.39521C37.8655 10.3538 37.6738 11.6 37.6738 13.2297C37.6738 14.4759 37.8655 15.5304 38.1531 16.2973C38.92 18.1187 40.1662 18.9814 42.0834 18.9814C43.1379 18.9814 44.0965 18.6938 44.9593 18.0228L45.9179 19.269C44.6717 20.0359 43.3296 20.4194 41.8917 20.4194C40.1662 20.4194 38.7282 19.7483 37.5779 18.3104C36.4276 16.9683 35.9482 15.1469 35.9482 12.9421C35.9482 10.7373 36.5234 9.01176 37.6738 7.57383C38.7282 6.32763 40.1662 5.56073 41.8917 5.56073Z" fill="#1B1B1C"/>
<path d="M47.354 15.0507C47.354 13.3252 47.7375 11.9831 48.6002 11.0245C49.463 10.0659 50.5174 9.49072 51.8595 9.49072C53.3933 9.49072 54.6395 10.0659 55.5023 11.3121C56.1733 12.2707 56.4609 13.6128 56.4609 15.2424C56.4609 17.1597 55.8857 18.6935 54.8312 19.6521C54.0643 20.3231 53.1057 20.7066 51.9554 20.7066C50.5175 20.7066 49.463 20.2273 48.6002 19.1728C47.7375 18.2142 47.354 16.7762 47.354 15.0507ZM54.0643 12.2707C53.585 11.408 52.914 10.9287 51.8595 10.9287C50.805 10.9287 50.134 11.3121 49.6547 12.079C49.2712 12.6542 49.1754 13.6128 49.1754 14.859C49.1754 16.4887 49.3671 17.639 49.8464 18.31C50.3257 18.9811 50.9968 19.3645 51.9554 19.3645C53.1057 19.3645 53.8726 18.7893 54.2561 17.7349C54.4478 17.1597 54.5437 16.3928 54.5437 15.4342C54.6395 13.9962 54.4478 12.9418 54.0643 12.2707Z" fill="#1B1B1C"/>
<path d="M59.5299 12.4624C59.5299 11.408 59.4341 10.5452 59.1465 9.87417L60.7761 9.49072C61.0637 9.97003 61.1596 10.5452 61.1596 11.0245V11.1204C61.543 10.7369 61.9265 10.3535 62.5017 10.0659C63.1727 9.68245 63.7479 9.49072 64.323 9.49072C65.1858 9.49072 65.9527 9.87417 66.432 10.5452C66.5279 10.7369 66.7196 11.0245 66.8154 11.2162C67.9658 10.0659 69.0203 9.49072 70.1706 9.49072C70.9375 9.49072 71.6086 9.77831 72.0879 10.2576C72.5672 10.8328 72.8548 11.5038 72.8548 12.2707V20.2273H71.1292V12.3666C71.1292 11.3121 70.6499 10.8328 69.7872 10.8328C69.3079 10.8328 68.7327 11.0245 68.2534 11.408C68.0617 11.5997 67.6782 11.8873 67.1989 12.2707L67.0072 12.4624V20.2273H65.1858V12.75C65.1858 12.079 65.0899 11.5997 64.8982 11.408C64.6106 11.1204 64.323 11.0245 63.8437 11.0245C63.0768 11.0245 62.2141 11.5038 61.1596 12.4624V20.3231H59.5299V12.4624Z" fill="#1B1B1C"/>
<path d="M75.8281 5.17654L77.5536 4.79309C77.7454 5.55999 77.8412 6.42275 77.8412 7.47723V9.87378C77.8412 10.449 77.8412 10.8324 77.8412 11.0241C78.7998 10.0655 79.8543 9.58619 80.9088 9.58619C82.155 9.58619 83.2095 10.0655 83.8805 11.0241C84.6474 11.9827 85.0309 13.3248 85.0309 14.9545C85.0309 16.68 84.6474 18.0221 83.8805 19.0765C83.1136 20.131 82.0592 20.6103 80.813 20.6103C80.2378 20.6103 79.7585 20.5145 79.1833 20.2269C78.6081 19.9393 78.2247 19.6517 77.9371 19.2683C77.8412 19.7476 77.7454 20.131 77.6495 20.4186H76.0199C76.2116 19.9393 76.3074 19.0765 76.3074 17.7345V7.66895C76.2116 6.51861 76.1157 5.65585 75.8281 5.17654ZM78.6081 11.6952C78.3205 11.8869 78.033 12.1745 77.8412 12.4621V17.9262C78.5123 18.789 79.375 19.1724 80.4295 19.1724C81.2923 19.1724 81.9633 18.8848 82.3467 18.2138C82.8261 17.4469 83.1136 16.3924 83.1136 14.8586C83.1136 13.5165 82.9219 12.5579 82.4426 11.9827C82.0592 11.4076 81.3881 11.12 80.4295 11.12C79.8543 11.0241 79.1833 11.2158 78.6081 11.6952Z" fill="#1B1B1C"/>
<path d="M87.5225 6.51901C87.5225 6.13556 87.6183 5.84798 87.9059 5.56039C88.1935 5.2728 88.4811 5.17694 88.8645 5.17694C89.248 5.17694 89.5356 5.2728 89.8231 5.56039C90.1107 5.84798 90.2066 6.13556 90.2066 6.51901C90.2066 6.90246 90.1107 7.19004 89.8231 7.47763C89.5356 7.76522 89.248 7.86108 88.8645 7.86108C88.4811 7.86108 88.1935 7.76522 87.9059 7.47763C87.6183 7.19004 87.5225 6.90246 87.5225 6.51901ZM87.9059 20.3231V9.77832L89.6314 9.49073V20.3231H87.9059Z" fill="#1B1B1C"/>
<path d="M93.3685 12.4624C93.3685 11.6956 93.3685 11.2162 93.2726 11.0245C93.2726 10.7369 93.0809 10.4493 92.8892 9.97003L94.5188 9.49072C94.8064 10.0659 94.9023 10.5452 94.9023 11.1204C95.9567 10.0659 97.1071 9.49072 98.2574 9.49072C98.8326 9.49072 99.3119 9.58659 99.7912 9.87417C100.271 10.1618 100.654 10.5452 100.846 11.0245C101.037 11.408 101.133 11.7914 101.133 12.2707V20.3231H99.5036V13.1335C99.5036 12.2707 99.4078 11.6956 99.1202 11.408C98.8326 11.1204 98.4492 10.9287 97.9698 10.9287C97.5864 10.9287 97.0112 11.1204 96.4361 11.408C95.8609 11.6956 95.3816 12.079 94.9981 12.4624V20.3231H93.3685V12.4624Z" fill="#1B1B1C"/>
<path d="M104.97 12.079L104.108 10.9287C105.546 9.97003 106.984 9.49072 108.517 9.49072C110.051 9.49072 111.01 10.0659 111.489 11.1204C111.681 11.5038 111.681 12.079 111.681 12.9418V13.5169L111.585 16.968C111.585 17.0638 111.585 17.2556 111.585 17.4473C111.585 18.0224 111.585 18.4059 111.681 18.6935C111.777 19.0769 112.064 19.3645 112.448 19.5562L111.585 20.7066C110.818 20.419 110.339 19.9397 110.147 19.1728C109.188 20.1314 108.134 20.6107 107.079 20.6107C106.025 20.6107 105.162 20.3231 104.491 19.748C103.916 19.2687 103.628 18.5018 103.628 17.5431C103.628 16.2969 104.108 15.4342 105.066 14.7631C106.025 14.0921 107.463 13.8045 109.188 13.8045C109.476 13.8045 109.668 13.8045 109.955 13.8045V13.0376C109.955 12.1749 109.859 11.5997 109.572 11.408C109.188 11.0245 108.805 10.8328 108.134 10.8328C107.559 10.8328 106.888 11.0245 106.121 11.3121C105.833 11.5038 105.45 11.7914 104.97 12.079ZM110.051 17.7349L110.147 14.9549C109.668 14.9549 109.38 14.9549 109.284 14.9549C107.75 14.9549 106.792 15.2424 106.217 15.8176C105.833 16.2011 105.642 16.7762 105.642 17.5431C105.642 18.7893 106.217 19.4604 107.463 19.4604C108.613 19.3645 109.476 18.7893 110.051 17.7349Z" fill="#1B1B1C"/>
<path d="M117.143 9.77791H119.827L119.348 11.12H117.143V17.9262C117.143 18.5014 117.239 18.8848 117.431 19.1724C117.623 19.3641 118.006 19.5558 118.485 19.5558C118.869 19.5558 119.252 19.46 119.54 19.3641L119.732 20.4186C119.156 20.7062 118.581 20.8021 117.91 20.8021C116.281 20.8021 115.514 20.0352 115.514 18.4055V11.12H114.076V9.77791H115.418V9.58619C115.418 9.39446 115.514 8.62757 115.609 7.38136V7.09378L117.335 6.71033C117.143 7.86067 117.143 8.91515 117.143 9.77791Z" fill="#1B1B1C"/>
<path d="M121.554 15.0507C121.554 13.3252 121.938 11.9831 122.8 11.0245C123.567 10.0659 124.718 9.49072 126.06 9.49072C127.594 9.49072 128.84 10.0659 129.702 11.3121C130.374 12.2707 130.661 13.6128 130.661 15.2424C130.661 17.1597 130.086 18.6935 129.031 19.6521C128.265 20.3231 127.306 20.7066 126.156 20.7066C124.718 20.7066 123.663 20.2273 122.8 19.1728C122.034 18.2142 121.554 16.7762 121.554 15.0507ZM128.36 12.2707C127.881 11.408 127.21 10.9287 126.156 10.9287C125.101 10.9287 124.43 11.3121 123.951 12.079C123.567 12.6542 123.471 13.6128 123.471 14.859C123.471 16.4887 123.663 17.639 124.142 18.31C124.622 18.9811 125.293 19.3645 126.251 19.3645C127.402 19.3645 128.169 18.7893 128.552 17.7349C128.744 17.1597 128.84 16.3928 128.84 15.4342C128.84 13.9962 128.648 12.9418 128.36 12.2707Z" fill="#1B1B1C"/>
<path d="M133.823 12.2707C133.823 11.3121 133.727 10.5452 133.439 9.97003L135.069 9.49072C135.357 10.0659 135.453 10.5452 135.453 11.1204V11.3121C136.315 10.1618 137.274 9.58659 138.424 9.58659C138.616 9.58659 138.808 9.58659 138.999 9.68245L138.328 11.5038C138.137 11.408 137.945 11.408 137.849 11.408C137.466 11.408 136.986 11.5038 136.603 11.7914C136.219 12.079 135.836 12.3666 135.644 12.75C135.548 13.0376 135.453 13.4211 135.453 13.9004V20.5149H133.823V12.2707Z" fill="#1B1B1C"/>
</g>
<defs>
<clipPath id="clip0_2362_42">
<rect width="139" height="28.7586" fill="white"/>
</clipPath>
</defs>
</svg>
